<?xml version="1.0" standalone="no"?>
<!DOCTYPE svg PUBLIC "-//W3C//DTD SVG 20010904//EN"
 "http://www.w3.org/TR/2001/REC-SVG-20010904/DTD/svg10.dtd">
<svg version="1.0" xmlns="http://www.w3.org/2000/svg"
 width="300.000000pt" height="300.000000pt" viewBox="0 0 300.000000 300.000000"
 preserveAspectRatio="xMidYMid meet">

<g transform="translate(0.000000,300.000000) scale(0.100000,-0.100000)"
fill="#000000" stroke="none">
<path d="M571 1649 c-12 -19 -31 -53 -43 -76 l-23 -42 30 -56 c17 -30 36 -63
43 -72 16 -20 10 -27 67 70 l35 59 -45 75 -44 75 -20 -33z"/>
<path d="M1626 1599 c-40 -11 -65 -37 -72 -75 -15 -79 28 -134 103 -134 69 0
93 20 93 76 l0 44 -45 0 c-33 0 -45 -4 -45 -15 0 -9 9 -15 25 -15 20 0 25 -5
25 -24 0 -42 -58 -49 -95 -11 -32 31 -33 74 -2 103 25 24 76 29 95 10 9 -9 15
-9 24 0 26 26 -51 56 -106 41z"/>
<path d="M880 1495 c0 -98 1 -105 20 -105 19 0 20 7 20 105 0 98 -1 105 -20
105 -19 0 -20 -7 -20 -105z"/>
<path d="M1009 1495 c-13 -98 -13 -105 2 -105 17 0 20 7 34 93 l6 39 29 -46
c16 -25 32 -46 34 -46 3 0 18 21 33 47 l27 47 9 -44 c14 -82 17 -90 32 -90 18
0 18 16 2 124 -7 44 -16 81 -22 83 -5 1 -23 -19 -38 -47 -15 -27 -32 -52 -36
-54 -5 -3 -25 19 -45 49 -20 30 -40 55 -44 55 -4 0 -15 -47 -23 -105z"/>
<path d="M1337 1501 c-26 -54 -47 -102 -47 -105 0 -16 39 -4 45 14 5 17 15 20
57 20 41 0 51 -3 55 -20 3 -13 14 -20 29 -20 23 0 23 2 -28 105 -29 58 -55
105 -59 105 -3 0 -27 -44 -52 -99z m66 12 c2 -10 8 -26 12 -35 6 -15 2 -18
-25 -18 -27 0 -31 3 -25 18 4 9 10 25 12 35 3 9 9 17 13 17 4 0 10 -8 13 -17z"/>
<path d="M1830 1495 c0 -98 1 -105 20 -105 19 0 20 7 20 105 0 98 -1 105 -20
105 -19 0 -20 -7 -20 -105z"/>
<path d="M1976 1569 c-38 -45 -37 -110 3 -150 24 -23 38 -29 73 -29 64 0 88
21 88 76 l0 45 -42 -3 c-49 -4 -66 -28 -19 -28 26 0 31 -4 31 -24 0 -39 -57
-49 -99 -17 -19 14 -24 27 -23 57 2 65 55 90 125 59 12 -5 17 -3 17 9 0 22
-32 36 -83 36 -38 0 -49 -5 -71 -31z"/>
<path d="M2227 1593 c-4 -3 -7 -51 -7 -105 l0 -98 70 0 c56 0 70 3 70 15 0 11
-12 15 -50 15 -49 0 -50 1 -50 30 0 29 2 30 45 30 33 0 45 4 45 15 0 11 -12
15 -45 15 -43 0 -45 1 -45 30 0 29 1 30 50 30 38 0 50 4 50 15 0 12 -14 15
-63 15 -35 0 -67 -3 -70 -7z"/>
<path d="M2440 1495 c0 -98 1 -105 20 -105 18 0 20 7 20 68 l0 67 61 -67 c33
-38 65 -68 70 -68 5 0 9 47 9 105 0 100 -1 105 -21 105 -19 0 -20 -5 -17 -65
1 -36 0 -65 -4 -65 -3 0 -32 29 -63 65 -32 36 -61 65 -66 65 -5 0 -9 -47 -9
-105z"/>
<path d="M426 1398 c-20 -36 -36 -68 -36 -71 0 -4 36 -7 81 -7 l81 0 -32 58
c-52 93 -53 93 -94 20z"/>
<path d="M693 1429 c-11 -19 -30 -51 -42 -71 l-23 -38 87 0 86 0 -28 50 c-15
28 -35 60 -44 71 -16 21 -16 21 -36 -12z"/>
</g>
</svg>
