<svg xmlns="http://www.w3.org/2000/svg" version="1.1" xmlns:xlink="http://www.w3.org/1999/xlink" xmlns:svgjs="http://svgjs.dev/svgjs" width="2000" height="438" viewBox="0 0 2000 438"><g transform="matrix(1,0,0,1,-26.34252409003534,-25.531248332721304)"><svg viewBox="0 0 401 88" data-background-color="#a1b0f6" preserveAspectRatio="xMidYMid meet" height="438" width="2000" xmlns="http://www.w3.org/2000/svg" xmlns:xlink="http://www.w3.org/1999/xlink"><g id="tight-bounds" transform="matrix(1,0,0,1,5.28167608005208,5.13122764729286)"><svg viewBox="0 0 395.52 82.23971192204941" height="82.23971192204941" width="395.52"><g><svg viewBox="0 0 610.5280192801993 126.94591531640123" height="82.23971192204941" width="395.52"><g transform="matrix(1,0,0,1,215.00801928019922,17.544623607404226)"><svg viewBox="0 0 395.52 91.85666810159277" height="91.85666810159277" width="395.52"><g id="textblocktransform"><svg viewBox="0 0 395.52 91.85666810159277" height="91.85666810159277" width="395.52" id="textblock"><g><svg viewBox="0 0 395.52 91.85666810159277" height="91.85666810159277" width="395.52"><g transform="matrix(1,0,0,1,0,0)"><svg width="395.52" viewBox="2.1499999999999995 -40.8 232.27999999999994 53.949999999999996" height="91.85666810159277" data-palette-color="#35373d"><path d="M12-31.65L12-31.65 12-2.2 16.05-1.7Q16.25-0.95 16.05 0.15L16.05 0.15Q12.9 0 9.2 0L9.2 0Q6.5 0 2.3 0.1L2.3 0.1Q2-0.8 2.3-1.7L2.3-1.7 6.45-2.3Q6.65-4.2 6.65-8.15L6.65-8.15 6.65-37.6 2.6-38.1Q2.4-38.85 2.6-39.95L2.6-39.95Q5.35-39.75 9.45-39.75L9.45-39.75Q13.1-39.75 16.35-39.9L16.35-39.9Q16.65-39 16.35-38.1L16.35-38.1 12.2-37.5Q12-35.6 12-31.65ZM57.3-8.7L57.3-17.85Q57.3-24.8 52.85-24.8L52.85-24.8Q49.05-24.8 45.65-19.55L45.65-19.55 45.65-2.55 49.7-1.8Q49.9-1 49.7 0.2L49.7 0.2Q46.55 0.05 43.3 0.05L43.3 0.05Q41 0.05 36.8 0.15L36.8 0.15Q36.5-0.8 36.8-1.8L36.8-1.8 40.75-2.35Q40.95-5.1 40.95-8.7L40.95-8.7 40.95-17.85Q40.95-24.8 36.5-24.8L36.5-24.8Q34.25-24.8 32.55-23.43 30.85-22.05 29.05-19.15L29.05-19.15 29.05-2.55 33.1-1.8Q33.3-1 33.1 0.2L33.1 0.2Q29.95 0.05 26.7 0.05L26.7 0.05Q24.4 0.05 20.2 0.15L20.2 0.15Q19.9-0.8 20.2-1.8L20.2-1.8 24.15-2.35Q24.35-5.1 24.35-8.7L24.35-8.7 24.35-22.4Q24.35-23.4 24.2-24.25L24.2-24.25 20.25-24.75Q20.05-25.5 20.25-26.65L20.25-26.65Q23.6-26.9 28.8-27.7L28.8-27.7Q29.25-27.2 29.3-26.7L29.3-26.7Q29.05-25.4 29.05-22.25L29.05-22.25Q33-27.7 37.95-27.7L37.95-27.7Q40.55-27.7 42.7-26.38 44.85-25.05 45.45-22.3L45.45-22.3Q49.45-27.7 54.3-27.7L54.3-27.7Q57.35-27.7 59.67-25.9 62-24.1 62-20.35L62-20.35 62-2.55 66.05-1.8Q66.25-1 66.05 0.2L66.05 0.2Q62.9 0.05 59.65 0.05L59.65 0.05Q57.35 0.05 53.15 0.15L53.15 0.15Q52.85-0.8 53.15-1.8L53.15-1.8 57.1-2.35Q57.3-5.1 57.3-8.7L57.3-8.7ZM73.5-6.65L73.5-6.65Q73.5-4.05 74.45-2.98 75.4-1.9 77.45-1.9L77.45-1.9Q78.95-1.9 80.77-2.83 82.59-3.75 84.15-5.5L84.15-5.5 84.15-13.3Q79-13 76.25-11.48 73.5-9.95 73.5-6.65ZM84.15-15.1L84.15-15.1 84.15-17.65Q84.15-21.9 83.17-23.83 82.2-25.75 79.95-25.75L79.95-25.75Q77.65-25.75 76.25-24.28 74.84-22.8 74.34-19.25L74.34-19.25Q72.75-18.9 72-18.9L72-18.9Q70.05-18.9 69.7-20.3L69.7-20.3Q69.7-23.7 72.65-25.7 75.59-27.7 80-27.7L80-27.7Q84.84-27.7 86.87-25.73 88.9-23.75 88.9-18.65L88.9-18.65 88.9-4.55Q88.9-3.3 89.05-2.4L89.05-2.4 93-1.9Q93.2-1.15 93 0L93 0Q89.45 0.15 85.45 0.7L85.45 0.7Q85.05 0.3 84.95-0.3L84.95-0.3 84.7-3.75Q80.55 1 75.45 1L75.45 1Q72.3 1 70.52-0.8 68.75-2.6 68.75-5.65L68.75-5.65Q68.75-10.25 72.92-12.6 77.09-14.95 84.15-15.1ZM99.44 0.55L99.44 0.55Q99.89 0.75 100.19 1.4L100.19 1.4Q98.54 2.75 98.54 5.45L98.54 5.45Q98.54 7.85 100.74 9.3 102.94 10.75 106.44 10.75L106.44 10.75Q110.04 10.75 112.44 9.43 114.84 8.1 114.84 5.7L114.84 5.7Q114.84 3.1 113.89 1.88 112.94 0.65 110.09 0.4L110.09 0.4 100.74-0.45Q99.19-0.65 98.17-2.08 97.14-3.5 97.14-4.85L97.14-4.85 100.49-10.4Q98.19-11.7 97.02-13.85 95.84-16 95.84-18.25L95.84-18.25Q95.84-22.5 98.99-25.1 102.14-27.7 106.24-27.7L106.24-27.7Q110.19-27.7 113.19-25.6L113.19-25.6Q113.44-32.45 118.29-32.7L118.29-32.7Q119.59-32.4 119.59-30.55L119.59-30.55Q119.59-29.55 119.39-28.35L119.39-28.35Q117.44-28.2 116.19-27.08 114.94-25.95 114.39-24.5L114.39-24.5Q116.89-22 116.89-18.25L116.89-18.25Q116.89-14.3 113.69-11.68 110.49-9.05 106.24-9.05L106.24-9.05Q103.99-9.05 102.19-9.65L102.19-9.65 100.49-5.2 112.94-3.95Q115.84-3.6 117.37-1.83 118.89-0.05 118.89 2.8L118.89 2.8Q118.89 7.8 115.29 10.48 111.69 13.15 105.54 13.15L105.54 13.15Q100.44 13.15 97.59 11.3 94.74 9.45 94.74 6.35L94.74 6.35Q94.74 4.25 96.09 2.63 97.44 1 99.44 0.55ZM100.34-18.25L100.34-18.25Q100.34-15.35 101.97-13.3 103.59-11.25 106.29-11.25L106.29-11.25Q108.94-11.25 110.64-13.28 112.34-15.3 112.34-18.25L112.34-18.25Q112.34-21.45 110.67-23.58 108.99-25.7 106.29-25.7L106.29-25.7Q103.74-25.7 102.04-23.55 100.34-21.4 100.34-18.25ZM130.04-18.6L130.04-18.6 130.04-2.55 134.09-1.8Q134.14-1.55 134.17-1.35 134.19-1.15 134.19-0.9L134.19-0.9Q134.19-0.65 134.17-0.38 134.14-0.1 134.09 0.2L134.09 0.2Q130.94 0.05 127.64 0.05L127.64 0.05Q126.49 0.05 124.87 0.08 123.24 0.1 121.14 0.15L121.14 0.15Q120.99-0.3 120.99-0.8L120.99-0.8Q120.99-1.25 121.14-1.8L121.14-1.8 125.09-2.35Q125.19-3.75 125.24-5.33 125.29-6.9 125.29-8.7L125.29-8.7 125.29-19.35Q125.29-22.65 125.14-24.25L125.14-24.25 121.19-24.75Q121.09-25 121.09-25.6L121.09-25.6Q121.09-25.85 121.09-26.1 121.09-26.35 121.19-26.65L121.19-26.65Q124.59-26.85 129.79-27.7L129.79-27.7Q130.24-27.2 130.29-26.7L130.29-26.7Q130.04-25.3 130.04-18.6ZM122.74-36.45L122.74-36.45Q122.64-36.7 122.64-36.98 122.64-37.25 122.64-37.5L122.64-37.5Q122.64-38.85 123.77-39.68 124.89-40.5 126.54-40.5L126.54-40.5Q128.09-40.5 129.07-39.58 130.04-38.65 130.04-37.05L130.04-37.05Q130.04-35.75 128.92-34.95 127.79-34.15 126.04-34.15L126.04-34.15Q124.84-34.15 123.92-34.75 122.99-35.35 122.74-36.45ZM169.14 0.9L169.14 0.9 167.84-3.2Q162.04 1 156.64 1L156.64 1Q151.74 1 148.09-0.78 144.44-2.55 142.04-5.48 139.64-8.4 138.46-12.13 137.29-15.85 137.29-19.75L137.29-19.75Q137.29-23.7 138.66-27.48 140.04-31.25 142.71-34.2 145.39-37.15 149.24-38.98 153.09-40.8 158.04-40.8L158.04-40.8Q164.94-40.8 170.74-37.8L170.74-37.8 170.74-28.2Q169.84-28.05 169.14-28.05L169.14-28.05Q168.39-28.05 167.89-28.2L167.89-28.2 166.29-36.55Q163.09-38.55 157.44-38.55L157.44-38.55Q154.29-38.55 151.74-37.13 149.19-35.7 147.34-33.27 145.49-30.85 144.49-27.58 143.49-24.3 143.49-20.6L143.49-20.6Q143.49-16.65 144.41-13.3 145.34-9.95 147.04-7.5 148.74-5.05 151.16-3.68 153.59-2.3 156.59-2.3L156.59-2.3Q161.44-2.3 166.14-4.95L166.14-4.95 166.14-15.6 162.09-16.1Q161.99-16.35 161.99-16.9L161.99-16.9Q161.99-17.15 161.99-17.4 161.99-17.65 162.09-17.95L162.09-17.95Q163.49-17.85 165.16-17.8 166.84-17.75 168.94-17.75L168.94-17.75Q172.59-17.75 175.84-17.9L175.84-17.9Q175.99-17.45 175.99-17L175.99-17Q175.99-16.55 175.84-16.1L175.84-16.1 171.69-15.5Q171.59-14.55 171.54-13.1 171.49-11.65 171.49-9.65L171.49-9.65 171.49-4.6 170.99 0.9Q170.79 1 170.59 1 170.39 1 170.14 1L170.14 1Q169.89 1 169.64 1 169.39 1 169.14 0.9ZM200.04-14.1L200.04-14.1 184.34-14.1Q183.89-1.35 191.99-1.35L191.99-1.35Q195.44-1.35 199.04-4.4L199.04-4.4Q199.79-3.95 200.19-2.85L200.19-2.85Q196.74 1 191.44 1L191.44 1Q179.24 1 179.24-13.35L179.24-13.35Q179.24-20.15 182.84-23.93 186.44-27.7 191.24-27.7L191.24-27.7Q196.49-27.7 198.79-24.05 201.09-20.4 201.09-14.55L201.09-14.55Q200.59-14.15 200.04-14.1ZM191.14-25.7L191.14-25.7Q188.54-25.7 186.71-23 184.89-20.3 184.49-16.1L184.49-16.1 190.69-16.1Q194.39-16.1 195.99-16.55L195.99-16.55Q195.99-20.65 194.74-23.18 193.49-25.7 191.14-25.7ZM225.53-8.7L225.53-17.85Q225.53-21.7 224.51-23.25 223.48-24.8 221.08-24.8L221.08-24.8Q217.38-24.8 213.63-19.25L213.63-19.25 213.63-2.55 217.68-1.8Q217.88-1 217.68 0.2L217.68 0.2Q214.53 0.05 211.23 0.05L211.23 0.05Q208.93 0.05 204.73 0.15L204.73 0.15Q204.43-0.8 204.73-1.8L204.73-1.8 208.68-2.35Q208.88-5.1 208.88-8.7L208.88-8.7 208.88-22.4Q208.88-23.4 208.73-24.25L208.73-24.25 204.78-24.75Q204.58-25.5 204.78-26.65L204.78-26.65Q208.23-26.9 213.38-27.7L213.38-27.7Q213.83-27.2 213.88-26.7L213.88-26.7Q213.63-25.4 213.63-22.25L213.63-22.25Q217.58-27.7 222.53-27.7L222.53-27.7Q230.28-27.7 230.28-20.35L230.28-20.35 230.28-2.55 234.33-1.8Q234.53-1 234.33 0.2L234.33 0.2Q231.18 0.05 227.88 0.05L227.88 0.05Q225.58 0.05 221.38 0.15L221.38 0.15Q221.08-0.8 221.38-1.8L221.38-1.8 225.33-2.35Q225.53-5.1 225.53-8.7L225.53-8.7Z" opacity="1" transform="matrix(1,0,0,1,0,0)" fill="#000000" class="wordmark-text-0" data-fill-palette-color="primary" id="text-0"></path></svg></g></svg></g></svg></g></svg></g><g><svg viewBox="0 0 193.3228645014476 126.94591531640123" height="126.94591531640123" width="193.3228645014476"><g><svg xmlns="http://www.w3.org/2000/svg" xmlns:xlink="http://www.w3.org/1999/xlink" version="1.1" x="0" y="0" viewBox="23.05 103.006 466 306" style="enable-background:new 0 0 512 512;" xml:space="preserve" height="126.94591531640123" width="193.3228645014476" class="icon-icon-0" data-fill-palette-color="accent" id="icon-0"><g fill="#000000" data-fill-palette-color="accent"><g fill="#000000" data-fill-palette-color="accent"><path d="M297.05 343.006C261.116 343.006 226.574 335.211 194.383 319.838 163.661 305.167 136.543 284.35 113.779 257.966A3 3 0 0 1 113.779 254.047C136.542 227.662 163.661 206.845 194.383 192.174 226.574 176.801 261.117 169.006 297.05 169.006 367.955 169.006 434.763 200.011 480.344 254.072A3 3 0 0 1 480.344 257.939C434.763 312 367.955 343.006 297.05 343.006M120.03 256.006C166.036 308.264 228.798 337.006 297.05 337.006 365.334 337.006 429.716 307.519 474.108 256.006 429.716 204.493 365.335 175.006 297.05 175.006 228.798 175.006 166.036 203.748 120.03 256.006" fill="#000000" data-fill-palette-color="accent"></path></g><g fill="#000000" data-fill-palette-color="accent"><path d="M297.05 343.006C248.265 343.006 210.05 304.791 210.05 256.006S248.265 169.006 297.05 169.006 384.05 207.221 384.05 256.006 345.835 343.006 297.05 343.006M297.05 175.006C251.63 175.006 216.05 210.586 216.05 256.006S251.629 337.006 297.05 337.006 378.05 301.427 378.05 256.006 342.471 175.006 297.05 175.006" fill="#000000" data-fill-palette-color="accent"></path></g><g fill="#000000" data-fill-palette-color="accent"><path d="M297.05 320.006A3 3 0 0 1 294.821 319.013C290.975 314.741 286.542 310.342 281.847 305.686 264.599 288.578 245.051 269.186 245.051 246.006 245.051 217.333 268.378 194.006 297.051 194.006S349.051 217.333 349.051 246.006C349.051 269.186 329.502 288.577 312.255 305.686 307.56 310.342 303.126 314.741 299.28 319.013A3 3 0 0 1 297.05 320.006M297.05 200.006C271.686 200.006 251.05 220.642 251.05 246.006 251.05 266.687 269.656 285.143 286.072 301.426 289.956 305.28 293.664 308.957 297.05 312.572 300.436 308.957 304.144 305.278 308.029 301.426 324.444 285.143 343.05 266.687 343.05 246.006 343.05 220.642 322.414 200.006 297.05 200.006" fill="#000000" data-fill-palette-color="accent"></path></g><g fill="#000000" data-fill-palette-color="accent"><path d="M297.05 273.006C280.788 273.006 268.05 260.268 268.05 244.006 268.05 228.567 281.06 216.006 297.05 216.006S326.05 228.567 326.05 244.006C326.05 260.268 313.312 273.006 297.05 273.006M297.05 222.006C284.367 222.006 274.05 231.875 274.05 244.006 274.05 256.903 284.153 267.006 297.05 267.006S320.05 256.903 320.05 244.006C320.05 231.875 309.732 222.006 297.05 222.006" fill="#000000" data-fill-palette-color="accent"></path></g><g fill="#000000" data-fill-palette-color="accent"><path d="M132.05 240.006A3 3 0 0 1 129.05 237.006V106.006A3 3 0 1 1 135.05 106.006V237.006A3 3 0 0 1 132.05 240.006" fill="#000000" data-fill-palette-color="accent"></path></g><g fill="#000000" data-fill-palette-color="accent"><path d="M460.05 409.006A3 3 0 0 1 457.05 406.006V275.006A3 3 0 1 1 463.05 275.006V406.006A3 3 0 0 1 460.05 409.006" fill="#000000" data-fill-palette-color="accent"></path></g><g fill="#000000" data-fill-palette-color="accent"><path d="M194.05 149.006C183.957 149.006 176.05 141.099 176.05 131.006S183.957 113.006 194.05 113.006C203.639 113.006 212.05 121.417 212.05 131.006S203.639 149.006 194.05 149.006M194.05 119.006C186.256 119.006 182.05 125.189 182.05 131.006S186.256 143.006 194.05 143.006C200.443 143.006 206.05 137.399 206.05 131.006S200.443 119.006 194.05 119.006" fill="#000000" data-fill-palette-color="accent"></path></g><g fill="#000000" data-fill-palette-color="accent"><path d="M401.05 386.006C391.676 386.006 384.05 377.931 384.05 368.006S391.676 350.006 401.05 350.006C411.144 350.006 419.05 357.912 419.05 368.006S411.144 386.006 401.05 386.006M401.05 356.006C394.985 356.006 390.05 361.389 390.05 368.006S394.985 380.006 401.05 380.006C408.844 380.006 413.05 373.823 413.05 368.006S408.844 356.006 401.05 356.006" fill="#000000" data-fill-palette-color="accent"></path></g><g fill="#000000" data-fill-palette-color="accent"><path d="M486.05 143.006H337.05A3 3 0 1 1 337.05 137.006H486.05A3 3 0 1 1 486.05 143.006" fill="#000000" data-fill-palette-color="accent"></path></g><g fill="#000000" data-fill-palette-color="accent"><path d="M337.051 143.006A3 3 0 0 1 334.986 137.828L353.986 119.828A3 3 0 0 1 358.113 124.184L339.113 142.184A3 3 0 0 1 337.051 143.006" fill="#000000" data-fill-palette-color="accent"></path></g><g fill="#000000" data-fill-palette-color="accent"><path d="M356.049 160.006A3 3 0 0 1 354.05 159.242L335.05 142.242A3 3 0 0 1 334.815 138.006 3 3 0 0 1 339.05 137.771L358.05 154.771A2.999 2.999 0 0 1 356.049 160.006" fill="#000000" data-fill-palette-color="accent"></path></g><g fill="#000000" data-fill-palette-color="accent"><path d="M175.05 342.006H26.05A3 3 0 1 1 26.05 336.006H175.05A3 3 0 1 1 175.05 342.006" fill="#000000" data-fill-palette-color="accent"></path></g><g fill="#000000" data-fill-palette-color="accent"><path d="M175.049 342.006A3 3 0 0 1 173.049 341.241L154.049 324.241A3 3 0 0 1 153.814 320.006 3 3 0 0 1 158.05 319.771L177.05 336.771A2.998 2.998 0 0 1 175.049 342.006" fill="#000000" data-fill-palette-color="accent"></path></g><g fill="#000000" data-fill-palette-color="accent"><path d="M156.051 360.006A3 3 0 0 1 153.988 354.828L172.988 336.828A3 3 0 1 1 177.114 341.183L158.114 359.183C157.534 359.733 156.792 360.006 156.051 360.006" fill="#000000" data-fill-palette-color="accent"></path></g><g fill="#000000" data-fill-palette-color="accent"><path d="M321.05 389.006H91.05A3 3 0 1 1 91.05 383.006H321.05A3 3 0 1 1 321.05 389.006" fill="#000000" data-fill-palette-color="accent"></path></g><g fill="#000000" data-fill-palette-color="accent"><path d="M385.05 403.006H226.05A3 3 0 1 1 226.05 397.006H385.05A3 3 0 1 1 385.05 403.006" fill="#000000" data-fill-palette-color="accent"></path></g><g fill="#000000" data-fill-palette-color="accent"><path d="M421.05 403.006H401.05A3 3 0 1 1 401.05 397.006H421.05A3 3 0 1 1 421.05 403.006" fill="#000000" data-fill-palette-color="accent"></path></g><g fill="#000000" data-fill-palette-color="accent"><path d="M158.05 403.006H82.05A3 3 0 1 1 82.05 397.006H158.05A3 3 0 1 1 158.05 403.006" fill="#000000" data-fill-palette-color="accent"></path></g></g></svg></g></svg></g></svg></g><defs></defs></svg><rect width="395.52" height="82.23971192204941" fill="none" stroke="none" visibility="hidden"></rect></g></svg></g></svg>